<?xml version="1.0" encoding="UTF-8" standalone="no"?>
<!DOCTYPE svg PUBLIC "-//W3C//DTD SVG 1.1//EN" "http://www.w3.org/Graphics/SVG/1.1/DTD/svg11.dtd">
<svg width="100%" height="100%" viewBox="0 0 94 94" version="1.1" xmlns="http://www.w3.org/2000/svg" xmlns:xlink="http://www.w3.org/1999/xlink" xml:space="preserve" xmlns:serif="http://www.serif.com/" style="fill-rule:evenodd;clip-rule:evenodd;stroke-linejoin:round;stroke-miterlimit:2;">
    <g transform="matrix(1.00535,0,0,1.00535,-3.26738,-3.26738)">
        <path d="M50,96.75C24.22,96.75 3.25,75.78 3.25,50C3.25,24.22 24.22,3.25 50,3.25C75.78,3.25 96.75,24.22 96.75,50C96.75,75.78 75.78,96.75 50,96.75ZM50,8.25C26.98,8.25 8.25,26.98 8.25,50C8.25,73.02 26.98,91.75 50,91.75C73.02,91.75 91.75,73.02 91.75,50C91.75,26.98 73.02,8.25 50,8.25Z" style="fill:rgb(7,142,255);fill-rule:nonzero;"/>
    </g>
    <g>
        <g transform="matrix(1.00535,0,0,1.00535,-3.26738,-3.26738)">
            <path d="M50,21.45C52.88,21.45 55.22,23.79 55.22,26.67C55.22,29.55 52.88,31.89 50,31.89C47.12,31.89 44.78,29.55 44.78,26.67C44.78,23.79 47.12,21.45 50,21.45M50,18.45C45.47,18.45 41.78,22.14 41.78,26.67C41.78,31.2 45.47,34.89 50,34.89C54.53,34.89 58.22,31.2 58.22,26.67C58.22,22.14 54.53,18.45 50,18.45Z" style="fill:rgb(7,142,255);fill-rule:nonzero;"/>
        </g>
        <g transform="matrix(1.00535,0,0,1.00535,-3.26738,-3.26738)">
            <path d="M69.28,37.44C70.47,37.44 71.55,38.52 71.75,39.98C71.97,41.55 71.1,42.98 69.81,43.16L54.66,45.3L54.66,54.86L62.83,74.58C63.44,76.04 62.73,77.74 61.27,78.34C60.91,78.49 60.54,78.56 60.18,78.56C59.05,78.56 57.97,77.89 57.51,76.78L50,58.66L42.49,76.78C42.03,77.89 40.95,78.56 39.82,78.56C39.45,78.56 39.08,78.49 38.73,78.34C37.27,77.73 36.57,76.04 37.17,74.58L45.34,54.86L45.34,45.3L30.19,43.17C28.9,42.99 28.02,41.56 28.25,39.99C28.45,38.53 29.54,37.45 30.72,37.45C30.81,37.45 30.9,37.46 30.99,37.47L45.62,39.53L54.38,39.53L69.01,37.47C69.1,37.45 69.19,37.44 69.28,37.44M69.28,34.44C69.05,34.44 68.82,34.46 68.59,34.49L54.16,36.52L45.82,36.52L31.39,34.49C31.16,34.46 30.93,34.44 30.7,34.44C28.01,34.44 25.67,36.64 25.26,39.56C24.81,42.77 26.83,45.72 29.76,46.13L42.33,47.9L42.33,54.26L34.4,73.42C33.8,74.87 33.8,76.47 34.4,77.92C35,79.37 36.13,80.5 37.58,81.1C38.3,81.4 39.05,81.55 39.82,81.55C42.21,81.55 44.35,80.13 45.26,77.92L50,66.49L54.73,77.92C55.64,80.12 57.78,81.55 60.17,81.55C60.94,81.55 61.7,81.4 62.41,81.1C65.4,79.86 66.83,76.41 65.59,73.42L57.65,54.25L57.65,47.9L70.22,46.13C71.73,45.92 73.07,45.02 73.9,43.65C74.63,42.46 74.92,41 74.72,39.56C74.32,36.65 71.98,34.44 69.28,34.44Z" style="fill:rgb(7,142,255);fill-rule:nonzero;"/>
        </g>
    </g>
</svg>
