<?xml version="1.0" encoding="UTF-8" standalone="no"?><!DOCTYPE svg PUBLIC "-//W3C//DTD SVG 1.1//EN" "http://www.w3.org/Graphics/SVG/1.1/DTD/svg11.dtd"><svg width="100%" height="100%" viewBox="0 0 81 74" version="1.1" xmlns="http://www.w3.org/2000/svg" xmlns:xlink="http://www.w3.org/1999/xlink" xml:space="preserve" xmlns:serif="http://www.serif.com/" style="fill-rule:evenodd;clip-rule:evenodd;stroke-linejoin:round;stroke-miterlimit:2;"><g><path d="M71,74l0,-20l10,10l-10,10Z" style="fill:#48a90d;fill-rule:nonzero;"/><path d="M63.654,59l9.346,0l0,10l-23,0l0,-0.334c5.317,-2.068 9.995,-5.416 13.654,-9.666Z" style="fill:#48a90d;"/><path d="M12.28,57c-4.552,-5.592 -7.28,-12.728 -7.28,-20.5c0,-16.297 11.995,-29.793 27.639,-32.139l-5.639,5.639l4.743,4.743c-9.637,2.543 -16.743,11.32 -16.743,21.757c0,9.115 5.42,16.964 13.213,20.5l-15.933,0Z" style="fill:#f88f00;fill-rule:nonzero;"/><path d="M40,4.095c16.781,1.276 30,15.297 30,32.405c0,17.782 -14.281,32.229 -32,32.496l0,0.004l-38,0l0,-10l37,0l0,-0.005c0.166,0.003 0.333,0.005 0.5,0.005c12.426,0 22.5,-10.074 22.5,-22.5c0,-11.581 -8.75,-21.119 -20,-22.363l0,5.863l-10,-10l10,-10l0,4.095Z" style="fill:#049df0;fill-rule:nonzero;"/></g></svg>