<?xml version="1.0" encoding="UTF-8" standalone="no"?><!DOCTYPE svg PUBLIC "-//W3C//DTD SVG 1.1//EN" "http://www.w3.org/Graphics/SVG/1.1/DTD/svg11.dtd"><svg width="100%" height="100%" viewBox="0 0 790 790" version="1.1" xmlns="http://www.w3.org/2000/svg" xmlns:xlink="http://www.w3.org/1999/xlink" xml:space="preserve" xmlns:serif="http://www.serif.com/" style="fill-rule:evenodd;clip-rule:evenodd;stroke-linejoin:round;stroke-miterlimit:2;"><g><path id="SVGID_1_" d="M158.905,568.449c-22.446,0 -42.852,-18.365 -42.852,-40.811c0,-22.447 18.365,-40.812 42.852,-40.812c24.487,0 42.852,18.365 42.852,40.812c0,22.446 -20.406,40.811 -42.852,40.811Zm526.469,-222.423c-4.081,-32.649 -24.486,-59.177 -51.014,-79.583l-10.203,-8.162l-8.162,10.203c-16.325,18.365 -22.447,51.015 -20.406,75.502c2.041,18.365 8.162,36.73 18.365,51.014c-8.162,4.081 -18.365,8.162 -26.527,12.243c-18.366,6.122 -36.731,8.163 -55.096,8.163l-528.51,0l-2.041,12.243c-4.081,38.771 2.041,79.583 18.366,116.313l8.162,14.284l0,2.041c48.974,81.623 136.719,118.354 232.626,118.354c183.652,0 334.655,-79.583 406.075,-250.992c46.934,2.041 93.867,-10.203 116.313,-55.095l6.122,-10.203l-10.203,-6.122c-26.527,-16.325 -63.258,-18.365 -93.867,-10.203Zm-263.234,-32.649l-79.583,0l0,79.582l79.583,0l0,-79.582Zm0,-99.989l-79.583,0l0,79.583l79.583,0l0,-79.583Zm0,-102.029l-79.583,0l0,79.583l79.583,0l0,-79.583Zm97.948,202.018l-79.583,0l0,79.582l79.583,0l0,-79.582Zm-295.885,0l-79.582,0l0,79.582l79.582,0l0,-79.582Zm99.989,0l-79.583,0l0,79.582l79.583,0l0,-79.582Zm-197.936,0l-79.583,0l0,79.582l79.583,0l0,-79.582Zm197.936,-99.989l-79.583,0l0,79.583l79.583,0l0,-79.583Zm-99.989,0l-79.582,0l0,79.583l79.582,0l0,-79.583Z" style="fill:#061d2f;fill-rule:nonzero;"/><clipPath id="_clip1"><path id="SVGID_3_" d="M158.905,568.449c-22.446,0 -42.852,-18.365 -42.852,-40.811c0,-22.447 18.365,-40.812 42.852,-40.812c24.487,0 42.852,18.365 42.852,40.812c0,22.446 -20.406,40.811 -42.852,40.811Zm526.469,-222.423c-4.081,-32.649 -24.486,-59.177 -51.014,-79.583l-10.203,-8.162l-8.162,10.203c-16.325,18.365 -22.447,51.015 -20.406,75.502c2.041,18.365 8.162,36.73 18.365,51.014c-8.162,4.081 -18.365,8.162 -26.527,12.243c-18.366,6.122 -36.731,8.163 -55.096,8.163l-528.51,0l-2.041,12.243c-4.081,38.771 2.041,79.583 18.366,116.313l8.162,14.284l0,2.041c48.974,81.623 136.719,118.354 232.626,118.354c183.652,0 334.655,-79.583 406.075,-250.992c46.934,2.041 93.867,-10.203 116.313,-55.095l6.122,-10.203l-10.203,-6.122c-26.527,-16.325 -63.258,-18.365 -93.867,-10.203Zm-263.234,-32.649l-79.583,0l0,79.582l79.583,0l0,-79.582Zm0,-99.989l-79.583,0l0,79.583l79.583,0l0,-79.583Zm0,-102.029l-79.583,0l0,79.583l79.583,0l0,-79.583Zm97.948,202.018l-79.583,0l0,79.582l79.583,0l0,-79.582Zm-295.885,0l-79.582,0l0,79.582l79.582,0l0,-79.582Zm99.989,0l-79.583,0l0,79.582l79.583,0l0,-79.582Zm-197.936,0l-79.583,0l0,79.582l79.583,0l0,-79.582Zm197.936,-99.989l-79.583,0l0,79.583l79.583,0l0,-79.583Zm-99.989,0l-79.582,0l0,79.583l79.582,0l0,-79.583Z"/></clipPath><g clip-path="url(#_clip1)"><rect x="-1014.43" y="-349.812" width="26013.3" height="3089.44" style="fill:#061d2f;fill-rule:nonzero;"/></g></g></svg>