<?xml version="1.0" encoding="UTF-8" standalone="no"?><!DOCTYPE svg PUBLIC "-//W3C//DTD SVG 1.1//EN" "http://www.w3.org/Graphics/SVG/1.1/DTD/svg11.dtd"><svg width="100%" height="100%" viewBox="0 0 2500 2305" version="1.1" xmlns="http://www.w3.org/2000/svg" xmlns:xlink="http://www.w3.org/1999/xlink" xml:space="preserve" xmlns:serif="http://www.serif.com/" style="fill-rule:evenodd;clip-rule:evenodd;stroke-linejoin:round;stroke-miterlimit:2;"><g><clipPath id="_clip1"><path d="M1.627,0l1249.11,0l979.268,889.854l-86.904,841.268l-893.096,574.454l-1248.37,-0.576l0,-2300.74"/></clipPath><g clip-path="url(#_clip1)"><path d="M1250.73,2305.58l460,-1415.72l-920.009,0l460,1415.72l0.009,0Z" style="fill:#e24329;fill-rule:nonzero;"/><path d="M1250.73,2305.57l-460.009,-1415.72l-644.668,0l1104.68,1415.72Z" style="fill:#fc6d26;fill-rule:nonzero;"/><path d="M1250.06,2305.57l460.009,-1415.72l644.668,0l-1104.68,1415.72Z" style="fill:#fc6d26;fill-rule:nonzero;"/><path d="M146.055,889.844l-139.785,430.234c-12.717,39.134 1.301,82.286 34.589,106.475l1209.87,879.023l-1104.69,-1415.72l0.01,-0.01Z" style="fill:#fca326;fill-rule:nonzero;"/><path d="M2355.57,889.844l139.786,430.234c12.716,39.134 -1.302,82.286 -34.59,106.475l-1209.87,879.023l1104.69,-1415.72l-0.01,-0.01Z" style="fill:#fca326;fill-rule:nonzero;"/><path d="M146.055,889.854l644.668,0l-277.041,-852.686c-14.258,-43.877 -76.328,-43.867 -90.577,0l-277.05,852.686Z" style="fill:#e24329;fill-rule:nonzero;"/></g></g><clipPath id="_clip2"><path d="M2500,4.264l0,2300.74l-1250,0.576l191.904,-592.552c-94.182,-50.835 -102.956,-80.951 27.853,-77.208l240.975,-745.962l-920.009,0l-283.302,-889.854l1992.58,4.264Z"/></clipPath><g clip-path="url(#_clip2)"><path d="M1175,0c-649.2,0 -1175,525.8 -1175,1175c0,552.2 378.9,1010.5 890.1,1139.7c-5.9,-14.7 -8.8,-35.3 -8.8,-55.8l0,-199.8l-146.9,0c-79.3,0 -152.8,-35.2 -185.1,-99.9c-38.2,-70.5 -44.1,-179.2 -141,-246.8c-29.4,-23.5 -5.9,-47 26.4,-44.1c61.7,17.6 111.6,58.8 158.6,120.4c47,61.7 67.6,76.4 155.7,76.4c41.1,0 105.7,-2.9 164.5,-11.8c32.3,-82.3 88.1,-155.7 155.7,-190.9c-393.6,-47 -581.6,-240.9 -581.6,-505.3c0,-114.6 49.9,-223.3 132.2,-317.3c-26.4,-91.1 -61.7,-279.1 11.8,-352.5c176.3,0 282,114.6 308.4,143.9c88.1,-29.4 185.1,-47 284.9,-47c102.8,0 196.8,17.6 284.9,47c26.4,-29.4 132.2,-143.9 308.4,-143.9c70.5,70.5 38.2,261.4 8.8,352.5c82.3,91.1 129.3,202.7 129.3,317.3c0,264.4 -185.1,458.3 -575.7,499.4c108.7,55.8 185.1,214.4 185.1,331.9l0,267.6c0,8.8 -2.9,17.6 -2.9,26.4c458.2,-158.6 787.2,-593.3 787.2,-1107.4c0,-649.2 -525.8,-1175 -1175,-1175Z" style="fill-rule:nonzero;"/></g></svg>