<svg viewBox="0 0 72 72" xmlns="http://www.w3.org/2000/svg" xml:space="preserve" fill-rule="evenodd" clip-rule="evenodd" stroke-linejoin="round" stroke-miterlimit="2"><path d="M72 2.112A2.114 2.114 0 0 0 69.888 0L36 .008 2.12 0C.951 0 0 .975 0 2.136v67.776c0 1.169.951 2.08 2.12 2.08h33.872L69.888 72A2.114 2.114 0 0 0 72 69.888V2.112ZM64.984 63.01c0 1.098-.892 1.99-1.99 1.99H45.916a1.984 1.984 0 0 1-1.99-1.982l.024-27.026c0-4.689-3.87-7.968-7.97-7.968-4.466 0-7.961 3.653-7.961 7.968 0 4.323 3.335 7.69 7.475 7.945h.064c.239 0 .406-.048.406-.048l.016 21.087H35.518c-.31 0-.621-.008-.923-.024C17.334 64.212 7 49.819 7 35.952 7 18.813 20.797 7 35.996 7 50.828 7 65 18.32 65 35.992l-.016 27.018Z" fill="#008e39" fill-rule="nonzero"/></svg>