<?xml version="1.0" encoding="UTF-8" standalone="no"?><!DOCTYPE svg PUBLIC "-//W3C//DTD SVG 1.1//EN" "http://www.w3.org/Graphics/SVG/1.1/DTD/svg11.dtd"><svg width="100%" height="100%" viewBox="0 0 92 60" version="1.1" xmlns="http://www.w3.org/2000/svg" xmlns:xlink="http://www.w3.org/1999/xlink" xml:space="preserve" xmlns:serif="http://www.serif.com/" style="fill-rule:evenodd;clip-rule:evenodd;stroke-linecap:round;stroke-linejoin:round;stroke-miterlimit:1.5;"><g><g id="done"><path d="M73.42,37.021l-6.643,-9.089l-2.866,2.963l6.643,9.088l2.866,-2.962Z" style="fill:#48a900;"/><path d="M68.341,36.958l15.515,-15.481l2.44,3.459l-15.514,15.481l-2.441,-3.459Z" style="fill:#48a900;"/></g><g id="doing"><rect x="34.575" y="28.708" width="15.47" height="4.199" style="fill:#ff9500;"/><path d="M46.474,23.108l9.52,7.839l-9.52,7.839l0,-15.678Z" style="fill:#ff9500;"/></g><g id="todo"><rect x="13.83" y="19.071" width="4.191" height="16.766"/><rect x="13.83" y="38.632" width="4.191" height="4.191"/></g><path d="M90,2.998c0,-0.551 -0.447,-0.998 -0.998,-0.998l-86.004,0c-0.551,0 -0.998,0.447 -0.998,0.998l0,54.004c0,0.551 0.447,0.998 0.998,0.998l86.004,0c0.551,0 0.998,-0.447 0.998,-0.998l0,-54.004Z" style="fill:none;stroke:#000;stroke-width:4px;"/><path d="M30.64,2l-0.64,56" style="fill:none;stroke:#000;stroke-width:4px;"/><path d="M60.229,2l-0.229,56" style="fill:none;stroke:#000;stroke-width:4px;"/></g></svg>